<?xml version="1.0" encoding="utf-8"?>
<!-- Generator: Adobe Illustrator 21.0.0, SVG Export Plug-In . SVG Version: 6.00 Build 0)  -->
<svg version="1.1" id="Layer_1" xmlns="http://www.w3.org/2000/svg" xmlns:xlink="http://www.w3.org/1999/xlink" x="0px" y="0px"
	 viewBox="0 0 1920 456" style="enable-background:new 0 0 1920 456;" xml:space="preserve">
<style type="text/css">
	.st0{fill:none;stroke:#EFEFEF;stroke-width:5;stroke-miterlimit:10;}
	.st1{fill:#00ACEF;}
	.st2{fill:#EFEFEF;}
	.st3{fill:#222222;}
</style>
<g>
	<title>workflowChart</title>
	<polyline class="st0" points="689.6,64.3 845.1,64.3 1071,290.2 1324.1,290.2 	"/>
	<rect x="1326.6" y="266.2" class="st1" width="213.5" height="48.1"/>
	<path class="st2" d="M1537.7,268.7v43.1h-208.5v-43.1H1537.7 M1542.7,263.7h-218.5v53.1h218.5V263.7z"/>
	<rect x="1324.1" y="162.2" class="st3" width="218.5" height="53.1"/>
	<rect x="1324.1" y="365.2" class="st3" width="218.5" height="53.1"/>
	<rect x="1324.1" y="60.6" class="st3" width="218.5" height="53.1"/>
	<rect x="473.5" y="40.3" class="st1" width="213.5" height="48.1"/>
	<path class="st2" d="M684.6,42.8v43.1H476V42.8H684.6 M689.6,37.8H471v53.1h218.5V37.8z"/>
	<rect x="147.6" y="40.3" class="st1" width="213.5" height="48.1"/>
	<path class="st2" d="M358.6,42.8v43.1H150V42.8H358.6 M363.6,37.8H145v53.1h218.6V37.8z"/>
	<line class="st0" x1="363.6" y1="64.3" x2="471" y2="64.3"/>
	<line class="st0" x1="1542.7" y1="290.2" x2="1696.6" y2="290.2"/>
	<path class="st1" d="M1723.1,314.3c-13.3,0-24-10.7-24-24s10.7-24,24-24s24,10.7,24,24C1747.1,303.5,1736.4,314.2,1723.1,314.3z"/>
	<path class="st2" d="M1723.1,268.7c11.9,0,21.5,9.6,21.5,21.5c0,11.9-9.6,21.5-21.5,21.5c-11.9,0-21.5-9.6-21.5-21.5
		C1701.6,278.3,1711.3,268.7,1723.1,268.7 M1723.1,263.7c-14.7,0-26.5,11.9-26.5,26.5c0,14.7,11.9,26.5,26.5,26.5
		c14.7,0,26.5-11.9,26.5-26.5S1737.8,263.7,1723.1,263.7L1723.1,263.7z"/>
	<path class="st2" d="M219.7,106.1c0.7,0,1.5,0.3,1.9,0.8c0.5,0.6,0.7,1.4,0.7,2.3v0.5c0.1,0.8-0.2,1.7-0.7,2.3
		c-0.5,0.6-1.2,0.8-2,0.8h-1.2v-6.7H219.7z M219.6,113.7c0.7,0,1.4-0.2,2-0.5c0.6-0.3,1-0.8,1.3-1.4c0.3-0.7,0.5-1.4,0.5-2.1v-0.5
		c0-0.7-0.1-1.4-0.5-2.1c-0.3-0.6-0.8-1.1-1.3-1.4c-0.6-0.3-1.3-0.5-2-0.5h-2.4v8.5H219.6z M214.3,110.6c0.3,0.2,0.5,0.6,0.4,1
		c0,0.4-0.2,0.8-0.5,1c-0.4,0.3-0.9,0.4-1.4,0.4c-0.5,0-1.1-0.1-1.5-0.5c-0.4-0.3-0.6-0.7-0.6-1.2h-1.1c0,0.5,0.1,0.9,0.4,1.3
		c0.3,0.4,0.7,0.7,1.2,0.9c0.5,0.2,1.1,0.3,1.6,0.3c0.8,0,1.5-0.2,2.2-0.6c0.5-0.4,0.8-1,0.8-1.7c0-0.4-0.1-0.8-0.3-1.1
		c-0.2-0.3-0.5-0.6-0.9-0.8c-0.5-0.3-1.1-0.5-1.7-0.7c-0.5-0.1-1.1-0.3-1.5-0.7c-0.3-0.2-0.4-0.5-0.4-0.9c0-0.4,0.2-0.8,0.5-1
		c0.4-0.3,0.8-0.4,1.3-0.4c0.5,0,1,0.1,1.4,0.4c0.3,0.3,0.5,0.8,0.5,1.2h1.1c0-0.5-0.1-0.9-0.4-1.3c-0.3-0.4-0.6-0.7-1.1-0.9
		c-0.5-0.2-1-0.3-1.6-0.3c-0.8,0-1.5,0.2-2.1,0.7c-0.5,0.4-0.8,1-0.8,1.7c0,0.6,0.2,1.1,0.7,1.5c0.6,0.5,1.3,0.8,2.1,1
		C213.2,110.1,213.8,110.3,214.3,110.6z M204.7,106.1c0.7,0,1.5,0.3,1.9,0.8c0.5,0.6,0.7,1.4,0.7,2.3v0.5c0.1,0.8-0.2,1.7-0.7,2.3
		c-0.5,0.6-1.2,0.8-2,0.8h-1.2v-6.7L204.7,106.1z M204.6,113.7c0.7,0,1.4-0.2,2-0.5c0.6-0.3,1-0.8,1.3-1.4c0.3-0.7,0.5-1.4,0.5-2.1
		v-0.5c0-0.7-0.1-1.4-0.5-2.1c-0.3-0.6-0.8-1.1-1.3-1.4c-0.6-0.3-1.3-0.5-2-0.5h-2.4v8.5H204.6z M200.3,105.2h-1.1v3.7h-4.3v-3.7
		h-1.1v8.5h1.1v-3.9h4.3v3.9h1.1L200.3,105.2z M192.5,109.7h-2.9v0.9h2.9V109.7z M180.6,105.2h-1.1l2.1,8.5h1l1.8-6.2l0.1-0.6
		l0.1,0.6l1.8,6.2h1l2.1-8.5h-1.1L187,111l-0.2,1.1l-0.2-1l-1.6-6H184l-1.7,6l-0.2,1l-0.2-1.1L180.6,105.2z M177.1,110.6
		c0.3,0.2,0.5,0.6,0.4,1c0,0.4-0.2,0.8-0.5,1c-0.4,0.3-0.9,0.4-1.4,0.4c-0.5,0-1.1-0.1-1.5-0.5c-0.4-0.3-0.6-0.7-0.6-1.2h-1.1
		c0,0.5,0.1,0.9,0.4,1.3c0.3,0.4,0.7,0.7,1.2,0.9c0.5,0.2,1.1,0.3,1.6,0.3c0.8,0,1.5-0.2,2.2-0.6c0.5-0.4,0.8-1,0.8-1.7
		c0-0.4-0.1-0.8-0.3-1.1c-0.2-0.3-0.5-0.6-0.9-0.8c-0.5-0.3-1.1-0.5-1.7-0.7c-0.5-0.1-1.1-0.3-1.5-0.7c-0.3-0.2-0.4-0.5-0.4-0.9
		c0-0.4,0.2-0.8,0.5-1c0.4-0.3,0.8-0.4,1.3-0.4c0.5,0,1,0.1,1.4,0.4c0.3,0.3,0.5,0.8,0.5,1.2h1.1c0-0.5-0.1-0.9-0.4-1.3
		c-0.3-0.4-0.6-0.7-1.1-0.9c-0.5-0.2-1-0.3-1.6-0.3c-0.8,0-1.5,0.2-2.1,0.7c-0.5,0.4-0.8,1-0.8,1.7c0,0.6,0.2,1.1,0.7,1.5
		c0.6,0.5,1.3,0.8,2.1,1C176.1,110.1,176.6,110.3,177.1,110.6L177.1,110.6z M167.4,109.7l0.3-0.2c0.3-0.2,0.7-0.3,1.1-0.3
		c0.5,0,0.9,0.2,1.2,0.5c0.3,0.4,0.5,0.9,0.5,1.4c0,0.5-0.1,1-0.4,1.4c-0.3,0.3-0.7,0.5-1.2,0.5c-0.4,0-0.8-0.1-1.1-0.4
		c-0.3-0.3-0.5-0.7-0.5-1.1h-1c0,0.7,0.3,1.3,0.8,1.7c0.5,0.4,1.2,0.7,1.9,0.6c0.7,0,1.5-0.2,2-0.8c0.5-0.6,0.8-1.3,0.7-2.1
		c0-0.8-0.2-1.5-0.7-2.1c-0.5-0.5-1.1-0.8-1.9-0.8c-0.5,0-1,0.1-1.4,0.4l0.3-2.3h3.4v-1h-4.4l-0.4,4.3L167.4,109.7z M164.8,112.8
		h-4.3l2.3-2.5c0.9-0.8,1.5-1.8,1.6-3c0-0.6-0.2-1.2-0.7-1.7c-0.5-0.4-1.2-0.7-1.9-0.6c-0.7,0-1.5,0.2-2,0.7
		c-0.5,0.5-0.8,1.2-0.8,1.9h1.1c0-0.5,0.1-0.9,0.4-1.3c0.3-0.3,0.8-0.5,1.3-0.5c0.4,0,0.8,0.1,1.1,0.4c0.3,0.3,0.4,0.7,0.4,1.1
		c0,0.3-0.1,0.7-0.3,1c-0.3,0.4-0.6,0.8-0.9,1.2l-3,3.3v0.8h5.6L164.8,112.8z M156.8,110.4c0,0.7-0.1,1.4-0.4,2
		c-0.3,0.4-0.7,0.6-1.2,0.6c-0.5,0-1-0.2-1.2-0.7c-0.3-0.6-0.4-1.3-0.4-2v-1.7c0-0.7,0.1-1.3,0.4-1.9c0.3-0.4,0.7-0.7,1.2-0.6
		c0.5,0,1,0.2,1.2,0.6c0.3,0.6,0.4,1.3,0.4,2L156.8,110.4z M157.9,108.7c0.1-1-0.2-1.9-0.7-2.7c-1-1.1-2.8-1.2-3.9-0.2
		c-0.1,0.1-0.1,0.1-0.2,0.2c-0.5,0.8-0.7,1.8-0.6,2.8v1.5c-0.1,0.9,0.2,1.9,0.7,2.7c1,1.1,2.7,1.2,3.8,0.2c0.1-0.1,0.2-0.2,0.2-0.2
		c0.5-0.9,0.7-1.8,0.6-2.8L157.9,108.7z M147.4,109.8h0.8c0.5,0,0.9,0.1,1.3,0.4c0.3,0.3,0.5,0.7,0.5,1.1c0,0.4-0.1,0.9-0.4,1.2
		c-0.3,0.3-0.8,0.4-1.2,0.4c-0.4,0-0.9-0.1-1.2-0.4c-0.3-0.3-0.5-0.7-0.4-1.1h-1.1c0,0.7,0.3,1.3,0.8,1.7c0.6,0.5,1.3,0.7,2,0.6
		c0.7,0,1.4-0.2,2-0.7c0.5-0.5,0.8-1.1,0.8-1.8c0-0.5-0.1-0.9-0.4-1.3c-0.3-0.4-0.7-0.6-1.1-0.7c0.4-0.2,0.8-0.4,1-0.8
		c0.2-0.3,0.4-0.7,0.4-1.1c0-0.7-0.2-1.3-0.7-1.8c-0.5-0.4-1.2-0.7-1.9-0.6c-0.7,0-1.4,0.2-1.9,0.7c-0.5,0.4-0.8,1-0.7,1.7h1.1
		c0-0.4,0.1-0.8,0.4-1.1c0.3-0.3,0.7-0.4,1.1-0.4c0.7-0.1,1.4,0.4,1.5,1.1c0,0.1,0,0.3,0,0.4c0,0.4-0.1,0.8-0.4,1.1
		c-0.3,0.3-0.8,0.4-1.2,0.4h-0.8L147.4,109.8z"/>
	<path class="st2" d="M180.2,121.6h1.6c0.4,0,0.9,0.1,1.2,0.4c0.3,0.3,0.5,0.6,0.4,1c0,0.4-0.1,0.7-0.4,1c-0.3,0.3-0.7,0.4-1.1,0.4
		h-1.8L180.2,121.6z M183.7,127h0.2l0,0l-1.5-2.4c0.4-0.1,0.7-0.3,0.9-0.5c0.2-0.3,0.4-0.6,0.4-1c0-0.5-0.2-0.9-0.5-1.2
		c-0.4-0.3-0.9-0.5-1.4-0.4H180v5.6h0.2v-2.4h2L183.7,127z M178.6,124h-2.9v-2.5h3.3v-0.2h-3.5v5.7h3.5v-0.2h-3.3v-2.6h2.9V124z
		 M173.9,121.4h-0.2v2.7h-3.6v-2.7h-0.2v5.7h0.2v-2.8h3.6v2.8h0.2V121.4z M168.4,125.3c0,0.5-0.2,0.9-0.5,1.2
		c-0.4,0.3-0.8,0.4-1.3,0.4c-0.4,0-0.7-0.1-1-0.3c-0.3-0.2-0.5-0.5-0.6-0.8c-0.2-0.4-0.2-0.8-0.2-1.2v-0.8c0-0.6,0.1-1.2,0.5-1.7
		c0.3-0.4,0.8-0.6,1.3-0.6c0.5,0,0.9,0.1,1.3,0.4c0.3,0.3,0.5,0.7,0.6,1.2h0.2c0-0.5-0.2-1-0.6-1.3c-0.4-0.3-0.9-0.5-1.4-0.5
		c-0.4,0-0.8,0.1-1.1,0.3c-0.3,0.2-0.6,0.5-0.7,0.9c-0.2,0.4-0.3,0.9-0.3,1.3v0.9c0,0.4,0.1,0.9,0.3,1.3c0.2,0.4,0.4,0.7,0.7,0.9
		c0.3,0.2,0.7,0.3,1.1,0.3c0.5,0,1-0.1,1.4-0.5c0.4-0.4,0.6-0.8,0.6-1.4L168.4,125.3z M163.7,121.4h-4.4v0.2h2.1v5.5h0.2v-5.5h2.1
		L163.7,121.4z M158.2,121.4H158v5.7h0.2L158.2,121.4z M151.5,125.8l-1.2-4.4H150l1.5,5.7h0.2l1.4-4.7l0.2-0.6l0.2,0.6l1.4,4.7h0.2
		l1.5-5.7h-0.2l-1.2,4.4l-0.3,0.9l-0.3-0.9l-1.3-4.4h-0.2l-1.3,4.4l-0.3,0.9L151.5,125.8z M148.8,126.6c-0.4,0.2-0.8,0.4-1.2,0.3
		c-0.5,0-1-0.1-1.4-0.4c-0.3-0.3-0.5-0.7-0.5-1.1h-0.2c0,0.7,0.4,1.3,1,1.5c0.4,0.1,0.7,0.2,1.1,0.2c0.3,0,0.7-0.1,1-0.2
		c0.3-0.1,0.5-0.3,0.7-0.5c0.2-0.2,0.2-0.5,0.2-0.8c0-0.4-0.2-0.8-0.6-1.1c-0.4-0.3-0.9-0.5-1.4-0.6c-0.5-0.1-0.9-0.3-1.3-0.5
		c-0.4-0.3-0.5-0.9-0.2-1.4c0.1-0.1,0.2-0.2,0.3-0.3c0.4-0.2,0.8-0.4,1.2-0.3c0.4,0,0.9,0.1,1.2,0.4c0.3,0.3,0.5,0.6,0.5,1h0.2
		c0-0.3-0.1-0.6-0.2-0.9c-0.2-0.3-0.4-0.5-0.7-0.6c-0.3-0.1-0.7-0.2-1-0.2c-0.5,0-1,0.1-1.4,0.4c-0.3,0.2-0.5,0.6-0.5,1
		c0,0.2,0.1,0.5,0.2,0.7c0.1,0.2,0.3,0.4,0.5,0.5c0.4,0.2,0.7,0.3,1.1,0.4c0.4,0.1,0.7,0.2,1.1,0.4c0.2,0.1,0.4,0.3,0.5,0.5
		c0.1,0.2,0.2,0.4,0.2,0.6C149.3,126,149.1,126.4,148.8,126.6L148.8,126.6z"/>
	<path class="st2" d="M545.7,106.1c0.7,0,1.5,0.3,1.9,0.8c0.5,0.6,0.7,1.4,0.7,2.3v0.5c0.1,0.8-0.2,1.7-0.7,2.3
		c-0.5,0.6-1.2,0.8-2,0.8h-1.2v-6.7H545.7z M545.6,113.7c0.7,0,1.4-0.2,2-0.5c0.6-0.3,1-0.8,1.3-1.4c0.3-0.7,0.5-1.4,0.5-2.1v-0.5
		c0-0.7-0.1-1.4-0.5-2.1c-0.3-0.6-0.8-1.1-1.3-1.4c-0.6-0.3-1.3-0.5-2-0.5h-2.4v8.5H545.6z M540.2,110.6c0.3,0.2,0.5,0.6,0.4,1
		c0,0.4-0.2,0.8-0.5,1c-0.4,0.3-0.9,0.4-1.4,0.4c-0.5,0-1.1-0.1-1.5-0.5c-0.4-0.3-0.6-0.7-0.6-1.2h-1.1c0,0.5,0.1,0.9,0.4,1.3
		c0.3,0.4,0.7,0.7,1.2,0.9c0.5,0.2,1.1,0.3,1.6,0.3c0.8,0,1.5-0.2,2.2-0.6c0.5-0.4,0.8-1,0.8-1.7c0-0.4-0.1-0.8-0.3-1.1
		c-0.2-0.3-0.5-0.6-0.9-0.8c-0.5-0.3-1.1-0.5-1.7-0.7c-0.5-0.1-1.1-0.3-1.5-0.7c-0.3-0.2-0.4-0.5-0.4-0.9c0-0.4,0.2-0.8,0.5-1
		c0.4-0.3,0.8-0.4,1.3-0.4c0.5,0,1,0.1,1.4,0.4c0.3,0.3,0.5,0.8,0.5,1.2h1.1c0-0.5-0.1-0.9-0.4-1.3c-0.3-0.4-0.6-0.7-1.1-0.9
		c-0.5-0.2-1-0.3-1.6-0.3c-0.8,0-1.5,0.2-2.1,0.7c-0.5,0.4-0.8,1-0.8,1.7c0,0.6,0.2,1.1,0.7,1.5c0.6,0.5,1.3,0.8,2.1,1
		C539.2,110.1,539.8,110.3,540.2,110.6z M530.7,106.1c0.7,0,1.5,0.3,1.9,0.8c0.5,0.6,0.7,1.4,0.7,2.3v0.5c0.1,0.8-0.2,1.7-0.7,2.3
		c-0.5,0.6-1.2,0.8-2,0.8h-1.2v-6.7L530.7,106.1z M530.6,113.7c0.7,0,1.4-0.2,2-0.5c0.6-0.3,1-0.8,1.3-1.4c0.3-0.7,0.5-1.4,0.5-2.1
		v-0.5c0-0.7-0.1-1.4-0.5-2.1c-0.3-0.6-0.8-1.1-1.3-1.4c-0.6-0.3-1.3-0.5-2-0.5h-2.4v8.5H530.6z M526.3,105.2h-1.1v3.7h-4.3v-3.7
		h-1.1v8.5h1.1v-3.9h4.3v3.9h1.1L526.3,105.2z M518.5,109.7h-2.9v0.9h2.9V109.7z M506.6,105.2h-1.1l2.1,8.5h1l1.8-6.2l0.1-0.6
		l0.1,0.6l1.8,6.2h1l2.1-8.5h-1.1L513,111l-0.2,1.1l-0.2-1l-1.6-6H510l-1.7,6l-0.2,1l-0.2-1.1L506.6,105.2z M503.1,110.6
		c0.3,0.2,0.5,0.6,0.4,1c0,0.4-0.2,0.8-0.5,1c-0.4,0.3-0.9,0.4-1.4,0.4c-0.5,0-1.1-0.1-1.5-0.5c-0.4-0.3-0.6-0.7-0.6-1.2h-1.1
		c0,0.5,0.1,0.9,0.4,1.3c0.3,0.4,0.7,0.7,1.2,0.9c0.5,0.2,1.1,0.3,1.6,0.3c0.8,0,1.5-0.2,2.2-0.6c0.5-0.4,0.8-1,0.8-1.7
		c0-0.4-0.1-0.8-0.3-1.1c-0.2-0.3-0.5-0.6-0.9-0.8c-0.5-0.3-1.1-0.5-1.7-0.7c-0.5-0.1-1.1-0.3-1.5-0.7c-0.3-0.2-0.4-0.5-0.4-0.9
		c0-0.4,0.2-0.8,0.5-1c0.4-0.3,0.8-0.4,1.3-0.4c0.5,0,1,0.1,1.4,0.4c0.3,0.3,0.5,0.8,0.5,1.2h1.1c0-0.5-0.1-0.9-0.4-1.3
		c-0.3-0.4-0.6-0.7-1.1-0.9c-0.5-0.2-1-0.3-1.6-0.3c-0.8,0-1.5,0.2-2.1,0.7c-0.5,0.4-0.8,1-0.8,1.7c0,0.6,0.2,1.1,0.7,1.5
		c0.6,0.5,1.3,0.8,2.1,1C502.1,110.1,502.6,110.3,503.1,110.6L503.1,110.6z M493.3,109.7l0.3-0.2c0.3-0.2,0.7-0.3,1.1-0.3
		c0.5,0,0.9,0.2,1.2,0.5c0.3,0.4,0.5,0.9,0.5,1.4c0,0.5-0.1,1-0.4,1.4c-0.3,0.3-0.7,0.5-1.2,0.5c-0.4,0-0.8-0.1-1.1-0.4
		c-0.3-0.3-0.5-0.7-0.5-1.1h-1c0,0.7,0.3,1.3,0.8,1.7c0.5,0.4,1.2,0.7,1.9,0.6c0.7,0,1.5-0.2,2-0.8c0.5-0.6,0.8-1.3,0.7-2.1
		c0-0.8-0.2-1.5-0.7-2.1c-0.5-0.5-1.1-0.8-1.9-0.8c-0.5,0-1,0.1-1.4,0.4l0.3-2.3h3.5v-1h-4.4l-0.4,4.3L493.3,109.7z M490.8,112.8
		h-4.3l2.3-2.5c0.9-0.8,1.5-1.8,1.6-3c0-0.6-0.2-1.2-0.7-1.7c-0.5-0.4-1.2-0.7-1.9-0.6c-0.7,0-1.5,0.2-2,0.7
		c-0.5,0.5-0.8,1.2-0.8,1.9h1.1c0-0.5,0.1-0.9,0.5-1.3c0.3-0.3,0.8-0.5,1.3-0.5c0.4,0,0.8,0.1,1.1,0.4c0.3,0.3,0.4,0.7,0.4,1.1
		c0,0.3-0.1,0.7-0.3,1c-0.3,0.4-0.6,0.8-0.9,1.2l-3,3.3v0.8h5.6L490.8,112.8z M482.8,110.4c0,0.7-0.1,1.4-0.4,2
		c-0.3,0.4-0.7,0.6-1.2,0.6c-0.5,0-1-0.2-1.2-0.7c-0.3-0.6-0.4-1.3-0.4-2v-1.7c0-0.7,0.1-1.3,0.4-1.9c0.3-0.4,0.7-0.7,1.2-0.6
		c0.5,0,1,0.2,1.2,0.6c0.3,0.6,0.4,1.3,0.4,2L482.8,110.4z M483.8,108.7c0.1-1-0.2-1.9-0.7-2.7c-1-1.1-2.8-1.2-3.9-0.2
		c-0.1,0.1-0.1,0.1-0.2,0.2c-0.5,0.8-0.7,1.8-0.6,2.8v1.5c-0.1,0.9,0.2,1.9,0.7,2.7c1,1.1,2.7,1.2,3.8,0.2c0.1-0.1,0.2-0.2,0.2-0.2
		c0.5-0.9,0.7-1.8,0.6-2.8L483.8,108.7z M473.3,109.8h0.8c0.5,0,0.9,0.1,1.3,0.4c0.3,0.3,0.5,0.7,0.5,1.1c0,0.4-0.1,0.9-0.4,1.2
		c-0.3,0.3-0.8,0.4-1.2,0.4c-0.4,0-0.9-0.1-1.2-0.4c-0.3-0.3-0.5-0.7-0.4-1.1h-1.1c0,0.7,0.3,1.3,0.8,1.7c0.6,0.5,1.3,0.7,2,0.6
		c0.7,0,1.4-0.2,2-0.7c0.5-0.5,0.8-1.1,0.8-1.8c0-0.5-0.1-0.9-0.4-1.3c-0.3-0.4-0.7-0.6-1.1-0.7c0.4-0.2,0.8-0.4,1-0.8
		c0.2-0.3,0.4-0.7,0.4-1.1c0-0.7-0.2-1.3-0.7-1.8c-0.5-0.4-1.2-0.7-1.9-0.6c-0.7,0-1.4,0.2-1.9,0.7c-0.5,0.4-0.8,1-0.7,1.7h1.1
		c0-0.4,0.1-0.8,0.4-1.1c0.3-0.3,0.7-0.4,1.1-0.4c0.7-0.1,1.4,0.4,1.5,1.1c0,0.1,0,0.3,0,0.4c0,0.4-0.1,0.8-0.4,1.1
		c-0.3,0.3-0.8,0.4-1.2,0.4h-0.8L473.3,109.8z"/>
	<path class="st2" d="M506.2,121.6h1.6c0.4,0,0.9,0.1,1.2,0.4c0.3,0.3,0.5,0.6,0.5,1c0,0.4-0.1,0.7-0.4,1c-0.3,0.3-0.7,0.4-1.1,0.4
		h-1.8L506.2,121.6z M509.7,127h0.2v0l-1.5-2.4c0.4-0.1,0.7-0.3,0.9-0.5c0.2-0.3,0.4-0.6,0.4-1c0-0.5-0.2-0.9-0.5-1.2
		c-0.4-0.3-0.9-0.5-1.4-0.4H506v5.6h0.2v-2.4h2L509.7,127z M504.5,124h-2.9v-2.5h3.3v-0.2h-3.5v5.6h3.5v-0.2h-3.3v-2.6h2.9V124z
		 M499.9,121.4h-0.2v2.6H496v-2.7h-0.2v5.7h0.2v-2.8h3.6v2.8h0.2L499.9,121.4z M494.3,125.3c0,0.5-0.2,0.9-0.5,1.2
		c-0.4,0.3-0.8,0.4-1.3,0.4c-0.4,0-0.7-0.1-1-0.3c-0.3-0.2-0.5-0.5-0.6-0.8c-0.2-0.4-0.2-0.8-0.2-1.2v-0.8c0-0.6,0.1-1.2,0.5-1.7
		c0.3-0.4,0.8-0.6,1.3-0.6c0.5,0,0.9,0.1,1.3,0.4c0.3,0.3,0.5,0.7,0.5,1.2h0.2c0-0.5-0.2-1-0.6-1.3c-0.4-0.3-0.9-0.5-1.4-0.5
		c-0.4,0-0.8,0.1-1.1,0.3c-0.3,0.2-0.6,0.5-0.7,0.9c-0.2,0.4-0.3,0.9-0.3,1.3v0.9c0,0.4,0.1,0.9,0.3,1.3c0.2,0.4,0.4,0.7,0.7,0.9
		c0.3,0.2,0.7,0.3,1.1,0.3c0.5,0,1-0.1,1.4-0.5c0.4-0.4,0.6-0.8,0.6-1.4L494.3,125.3z M489.7,121.4h-4.4v0.2h2.1v5.4h0.2v-5.5h2.1
		L489.7,121.4z M484.2,121.4H484v5.6h0.2V121.4z M477.4,125.8l-1.2-4.4H476l1.5,5.7h0.2l1.4-4.7l0.2-0.6l0.2,0.6l1.4,4.7h0.2
		l1.5-5.7h-0.2l-1.2,4.4l-0.3,0.9l-0.3-0.9l-1.3-4.4h-0.2l-1.3,4.4l-0.3,0.9L477.4,125.8z M474.8,126.6c-0.4,0.2-0.8,0.4-1.2,0.3
		c-0.5,0-1-0.1-1.4-0.4c-0.3-0.3-0.5-0.7-0.5-1.1h-0.2c0,0.7,0.4,1.3,1,1.5c0.4,0.1,0.7,0.2,1.1,0.2c0.3,0,0.7-0.1,1-0.2
		c0.3-0.1,0.5-0.3,0.7-0.5c0.2-0.2,0.2-0.5,0.2-0.8c0-0.4-0.2-0.8-0.5-1.1c-0.4-0.3-0.9-0.5-1.4-0.6c-0.5-0.1-0.9-0.3-1.3-0.5
		c-0.4-0.3-0.5-0.9-0.2-1.4c0.1-0.1,0.2-0.2,0.3-0.3c0.4-0.2,0.8-0.4,1.2-0.3c0.4,0,0.9,0.1,1.2,0.4c0.3,0.3,0.5,0.6,0.5,1h0.2
		c0-0.3-0.1-0.6-0.2-0.9c-0.2-0.3-0.4-0.5-0.7-0.6c-0.3-0.1-0.7-0.2-1-0.2c-0.5,0-1,0.1-1.4,0.4c-0.3,0.2-0.5,0.6-0.5,1
		c0,0.2,0.1,0.5,0.2,0.7c0.1,0.2,0.3,0.4,0.5,0.5c0.4,0.2,0.7,0.3,1.1,0.4c0.4,0.1,0.7,0.2,1.1,0.4c0.2,0.1,0.4,0.3,0.5,0.5
		c0.1,0.2,0.2,0.4,0.2,0.6C475.2,126,475.1,126.4,474.8,126.6L474.8,126.6z"/>
	<path class="st2" d="M1398.8,332c0.7,0,1.5,0.3,1.9,0.8c0.5,0.6,0.7,1.4,0.7,2.3v0.5c0.1,0.8-0.2,1.7-0.7,2.3
		c-0.5,0.6-1.2,0.8-2,0.8h-1.2V332H1398.8z M1398.7,339.6c0.7,0,1.4-0.2,2-0.5c0.6-0.3,1-0.8,1.3-1.4c0.3-0.7,0.5-1.4,0.5-2.1v-0.5
		c0-0.7-0.2-1.4-0.5-2.1c-0.3-0.6-0.8-1.1-1.3-1.4c-0.6-0.3-1.3-0.5-2-0.5h-2.4v8.5L1398.7,339.6z M1393.3,336.5
		c0.3,0.2,0.5,0.6,0.4,1c0,0.4-0.2,0.8-0.5,1c-0.4,0.3-0.9,0.4-1.4,0.4c-0.5,0-1.1-0.1-1.5-0.5c-0.4-0.3-0.6-0.7-0.6-1.2h-1.1
		c0,0.5,0.1,0.9,0.4,1.3c0.3,0.4,0.7,0.7,1.2,0.9c0.5,0.2,1.1,0.3,1.6,0.3c0.8,0,1.5-0.2,2.2-0.6c0.5-0.4,0.8-1,0.8-1.7
		c0-0.4-0.1-0.8-0.3-1.1c-0.2-0.3-0.5-0.6-0.9-0.8c-0.5-0.3-1.1-0.5-1.7-0.7c-0.5-0.1-1.1-0.3-1.5-0.7c-0.3-0.2-0.4-0.5-0.4-0.9
		c0-0.4,0.2-0.8,0.5-1c0.4-0.3,0.8-0.4,1.3-0.4c0.5,0,1,0.1,1.4,0.4c0.3,0.3,0.5,0.8,0.5,1.2h1.1c0-0.5-0.1-0.9-0.4-1.3
		c-0.3-0.4-0.6-0.7-1.1-0.9c-0.5-0.2-1-0.3-1.6-0.3c-0.8,0-1.5,0.2-2.1,0.7c-0.5,0.4-0.8,1-0.8,1.7c0,0.6,0.2,1.1,0.7,1.5
		c0.6,0.5,1.3,0.8,2.1,1C1392.3,336,1392.8,336.2,1393.3,336.5L1393.3,336.5z M1383.8,332c0.7,0,1.5,0.3,1.9,0.8
		c0.5,0.6,0.7,1.4,0.7,2.3v0.5c0.1,0.8-0.2,1.7-0.7,2.3c-0.5,0.6-1.2,0.8-2,0.8h-1.2V332L1383.8,332z M1383.7,339.6
		c0.7,0,1.4-0.2,2-0.5c0.6-0.3,1-0.8,1.3-1.4c0.3-0.7,0.5-1.4,0.5-2.1v-0.5c0-0.7-0.2-1.4-0.5-2c-0.3-0.6-0.8-1.1-1.3-1.4
		c-0.6-0.3-1.3-0.5-2-0.5h-2.4v8.5L1383.7,339.6z M1379.4,331.1h-1.1v3.7h-4.3v-3.6h-1.1v8.5h1.1v-3.9h4.3v3.9h1.1L1379.4,331.1z
		 M1371.6,335.6h-2.9v0.9h2.9V335.6z M1359.7,331.1h-1.1l2.1,8.5h1l1.8-6.2l0.1-0.7l0.1,0.7l1.8,6.2h1l2.1-8.5h-1.1l-1.3,5.8
		l-0.2,1.2l-0.2-1l-1.7-6h-0.9l-1.7,6l-0.2,1l-0.2-1.1L1359.7,331.1z M1356.2,336.5c0.3,0.2,0.5,0.6,0.4,1c0,0.4-0.2,0.8-0.5,1
		c-0.4,0.3-0.9,0.4-1.4,0.4c-0.5,0-1.1-0.1-1.5-0.5c-0.4-0.3-0.6-0.7-0.6-1.2h-1.1c0,0.5,0.1,0.9,0.4,1.3c0.3,0.4,0.7,0.7,1.2,0.9
		c0.5,0.2,1.1,0.3,1.6,0.3c0.8,0,1.5-0.2,2.2-0.6c0.5-0.4,0.8-1,0.8-1.7c0-0.4-0.1-0.8-0.3-1.1c-0.2-0.3-0.5-0.6-0.9-0.8
		c-0.5-0.3-1.1-0.5-1.7-0.7c-0.5-0.1-1.1-0.3-1.5-0.7c-0.3-0.2-0.4-0.5-0.4-0.9c0-0.4,0.2-0.8,0.5-1c0.4-0.3,0.8-0.4,1.3-0.4
		c0.5,0,1,0.1,1.4,0.4c0.3,0.3,0.5,0.8,0.5,1.2h1.1c0-0.5-0.1-0.9-0.4-1.3c-0.3-0.4-0.6-0.7-1.1-0.9c-0.5-0.2-1-0.3-1.6-0.3
		c-0.8,0-1.5,0.2-2.1,0.7c-0.5,0.4-0.8,1-0.8,1.7c0,0.6,0.2,1.1,0.7,1.5c0.6,0.5,1.3,0.8,2.1,1
		C1355.2,336,1355.7,336.2,1356.2,336.5L1356.2,336.5z M1346.4,335.6l0.3-0.2c0.3-0.2,0.7-0.3,1.1-0.3c0.5,0,0.9,0.2,1.2,0.5
		c0.3,0.4,0.5,0.9,0.5,1.4c0,0.5-0.1,1-0.4,1.4c-0.3,0.3-0.7,0.5-1.2,0.5c-0.4,0-0.8-0.1-1.1-0.4c-0.3-0.3-0.5-0.7-0.5-1.1h-1
		c0,0.7,0.3,1.3,0.8,1.7c0.5,0.4,1.2,0.7,1.8,0.6c0.7,0,1.5-0.2,2-0.8c0.5-0.6,0.8-1.3,0.7-2.1c0-0.8-0.2-1.5-0.7-2.1
		c-0.5-0.5-1.1-0.8-1.8-0.8c-0.5,0-1,0.1-1.4,0.4l0.3-2.3h3.4v-1h-4.4l-0.4,4.3L1346.4,335.6z M1343.9,338.7h-4.3l2.3-2.5
		c0.9-0.8,1.5-1.8,1.6-3c0-0.6-0.2-1.2-0.7-1.7c-0.5-0.4-1.2-0.7-1.9-0.6c-0.7,0-1.5,0.2-2,0.7c-0.5,0.5-0.8,1.2-0.8,1.9h1.1
		c0-0.5,0.1-0.9,0.4-1.3c0.3-0.3,0.8-0.5,1.3-0.5c0.4,0,0.8,0.1,1.1,0.4c0.3,0.3,0.4,0.7,0.4,1.1c0,0.3-0.1,0.7-0.3,1
		c-0.3,0.4-0.6,0.8-0.9,1.2l-3,3.3v0.8h5.6L1343.9,338.7z M1335.9,336.3c0,0.7-0.1,1.4-0.4,2c-0.3,0.4-0.7,0.6-1.2,0.6
		c-0.5,0-1-0.2-1.2-0.7c-0.3-0.6-0.4-1.3-0.4-2v-1.7c0-0.7,0.1-1.3,0.4-1.9c0.3-0.4,0.7-0.7,1.2-0.6c0.5,0,1,0.2,1.2,0.6
		c0.3,0.6,0.4,1.3,0.4,2L1335.9,336.3z M1336.9,334.6c0.1-1-0.2-1.9-0.7-2.7c-1-1.1-2.8-1.2-3.9-0.2c-0.1,0.1-0.1,0.1-0.2,0.2
		c-0.5,0.8-0.7,1.8-0.7,2.8v1.5c-0.1,0.9,0.2,1.9,0.7,2.7c1,1.1,2.7,1.2,3.8,0.2c0.1-0.1,0.2-0.2,0.2-0.2c0.5-0.9,0.7-1.8,0.7-2.8
		L1336.9,334.6z M1326.4,335.7h0.8c0.5,0,0.9,0.1,1.3,0.4c0.3,0.3,0.5,0.7,0.5,1.1c0,0.4-0.1,0.9-0.4,1.2c-0.3,0.3-0.8,0.4-1.2,0.4
		c-0.4,0-0.9-0.1-1.2-0.4c-0.3-0.3-0.5-0.7-0.4-1.1h-1.1c0,0.7,0.3,1.3,0.8,1.7c0.6,0.5,1.3,0.7,2,0.7c0.7,0,1.4-0.2,2-0.7
		c0.5-0.5,0.8-1.1,0.8-1.8c0-0.5-0.1-0.9-0.4-1.3c-0.3-0.4-0.7-0.6-1.1-0.7c0.4-0.2,0.8-0.4,1-0.8c0.2-0.3,0.4-0.7,0.4-1.1
		c0-0.7-0.2-1.3-0.7-1.8c-0.5-0.4-1.2-0.7-1.9-0.6c-0.7,0-1.4,0.2-1.9,0.7c-0.5,0.4-0.8,1-0.7,1.7h1.1c0-0.4,0.1-0.8,0.4-1.1
		c0.3-0.3,0.7-0.4,1.1-0.4c0.7-0.1,1.4,0.4,1.5,1.1c0,0.1,0,0.3,0,0.4c0,0.4-0.1,0.8-0.4,1.1c-0.3,0.3-0.8,0.4-1.2,0.4h-0.8
		L1326.4,335.7z"/>
	<path class="st2" d="M1359.3,347.5h1.6c0.4,0,0.9,0.1,1.2,0.4c0.3,0.3,0.5,0.6,0.4,1c0,0.4-0.1,0.7-0.4,1c-0.3,0.3-0.7,0.4-1.1,0.4
		h-1.8L1359.3,347.5z M1362.8,353h0.2v0l-1.5-2.4c0.4-0.1,0.7-0.3,0.9-0.5c0.2-0.3,0.4-0.6,0.4-1c0-0.5-0.2-0.9-0.5-1.2
		c-0.4-0.3-0.9-0.5-1.4-0.4h-1.8v5.7h0.2v-2.5h2L1362.8,353z M1357.6,350h-2.8v-2.5h3.3v-0.2h-3.5v5.7h3.5v-0.2h-3.3v-2.6h2.8
		L1357.6,350z M1353,347.3h-0.2v2.7h-3.6v-2.7h-0.2v5.7h0.2v-2.8h3.6v2.8h0.2V347.3z M1347.4,351.3c0,0.5-0.2,0.9-0.5,1.2
		c-0.4,0.3-0.8,0.4-1.3,0.4c-0.4,0-0.7-0.1-1-0.3c-0.3-0.2-0.5-0.5-0.7-0.8c-0.2-0.4-0.2-0.8-0.2-1.2v-0.8c0-0.6,0.1-1.2,0.5-1.7
		c0.3-0.4,0.8-0.6,1.3-0.6c0.5,0,0.9,0.1,1.3,0.4c0.3,0.3,0.5,0.7,0.6,1.2h0.2c0-0.5-0.2-1-0.6-1.3c-0.4-0.3-0.9-0.5-1.4-0.5
		c-0.4,0-0.8,0.1-1.1,0.3c-0.3,0.2-0.6,0.5-0.7,0.9c-0.2,0.4-0.3,0.9-0.3,1.3v0.9c0,0.4,0.1,0.9,0.3,1.3c0.2,0.4,0.4,0.7,0.7,0.9
		c0.3,0.2,0.7,0.3,1.1,0.3c0.5,0,1-0.1,1.4-0.5c0.4-0.4,0.6-0.8,0.6-1.3L1347.4,351.3z M1342.8,347.3h-4.3v0.2h2.1v5.5h0.2v-5.5h2.1
		L1342.8,347.3z M1337.3,347.3h-0.2v5.7h0.2L1337.3,347.3z M1330.5,351.7l-1.2-4.4h-0.2l1.5,5.7h0.2l1.4-4.7l0.2-0.6l0.2,0.6
		l1.4,4.7h0.2l1.5-5.7h-0.2l-1.2,4.4l-0.3,0.9l-0.3-0.9l-1.3-4.4h-0.2l-1.3,4.4l-0.3,0.9L1330.5,351.7z M1327.8,352.5
		c-0.4,0.2-0.8,0.4-1.2,0.3c-0.5,0-1-0.1-1.4-0.4c-0.3-0.3-0.5-0.7-0.5-1.1h-0.2c0,0.7,0.4,1.3,1,1.5c0.4,0.1,0.7,0.2,1.1,0.2
		c0.3,0,0.7-0.1,1-0.2c0.3-0.1,0.5-0.3,0.7-0.5c0.2-0.2,0.2-0.5,0.2-0.8c0-0.4-0.2-0.8-0.6-1.1c-0.4-0.3-0.9-0.5-1.4-0.6
		c-0.5-0.1-0.9-0.3-1.3-0.5c-0.4-0.3-0.5-0.9-0.2-1.4c0.1-0.1,0.2-0.2,0.3-0.3c0.4-0.2,0.8-0.4,1.2-0.3c0.4,0,0.9,0.1,1.2,0.4
		c0.3,0.3,0.5,0.6,0.5,1h0.2c0-0.3-0.1-0.6-0.2-0.9c-0.2-0.3-0.4-0.5-0.7-0.6c-0.3-0.1-0.7-0.2-1-0.2c-0.5,0-1,0.1-1.4,0.4
		c-0.3,0.2-0.5,0.6-0.5,1c0,0.2,0.1,0.5,0.2,0.7c0.1,0.2,0.3,0.4,0.5,0.5c0.4,0.2,0.7,0.3,1.1,0.4c0.4,0.1,0.7,0.2,1.1,0.4
		c0.2,0.1,0.4,0.3,0.5,0.5c0.1,0.2,0.2,0.4,0.2,0.6C1328.3,352,1328.1,352.3,1327.8,352.5L1327.8,352.5z"/>
	<path class="st2" d="M1771.3,332c0.7,0,1.5,0.3,1.9,0.8c0.5,0.6,0.7,1.4,0.7,2.3v0.5c0.1,0.8-0.2,1.7-0.7,2.3
		c-0.5,0.6-1.2,0.8-2,0.8h-1.2V332H1771.3z M1771.2,339.6c0.7,0,1.4-0.2,2-0.5c0.6-0.3,1-0.8,1.3-1.4c0.3-0.7,0.5-1.4,0.5-2.1v-0.5
		c0-0.7-0.1-1.4-0.5-2.1c-0.3-0.6-0.8-1.1-1.3-1.4c-0.6-0.3-1.3-0.5-2-0.5h-2.4v8.5H1771.2z M1765.8,336.5c0.3,0.2,0.5,0.6,0.4,1
		c0,0.4-0.2,0.8-0.5,1c-0.4,0.3-0.9,0.4-1.4,0.4c-0.5,0-1.1-0.1-1.5-0.5c-0.4-0.3-0.6-0.7-0.6-1.2h-1.1c0,0.5,0.1,0.9,0.4,1.3
		c0.3,0.4,0.7,0.7,1.2,0.9c0.5,0.2,1.1,0.3,1.6,0.3c0.8,0,1.5-0.2,2.2-0.6c0.5-0.4,0.8-1,0.8-1.7c0-0.4-0.1-0.8-0.3-1.1
		c-0.2-0.3-0.5-0.6-0.9-0.8c-0.5-0.3-1.1-0.5-1.7-0.7c-0.5-0.1-1.1-0.3-1.5-0.7c-0.3-0.2-0.4-0.5-0.4-0.9c0-0.4,0.2-0.8,0.5-1
		c0.4-0.3,0.8-0.4,1.3-0.4c0.5,0,1,0.1,1.4,0.4c0.3,0.3,0.5,0.8,0.5,1.2h1.1c0-0.5-0.1-0.9-0.4-1.3c-0.3-0.4-0.6-0.7-1.1-0.9
		c-0.5-0.2-1-0.3-1.6-0.3c-0.8,0-1.5,0.2-2.1,0.7c-0.5,0.4-0.8,1-0.8,1.7c0,0.6,0.2,1.1,0.7,1.5c0.6,0.5,1.3,0.8,2.1,1
		C1764.8,336,1765.3,336.2,1765.8,336.5L1765.8,336.5z M1756.3,332c0.7,0,1.5,0.3,1.9,0.8c0.5,0.6,0.7,1.4,0.7,2.3v0.5
		c0.1,0.8-0.2,1.7-0.7,2.3c-0.5,0.6-1.2,0.8-2,0.8h-1.2V332L1756.3,332z M1756.2,339.6c0.7,0,1.4-0.2,2-0.5c0.6-0.3,1-0.8,1.3-1.4
		c0.3-0.7,0.5-1.4,0.5-2.1v-0.5c0-0.7-0.1-1.4-0.5-2.1c-0.3-0.6-0.8-1.1-1.3-1.4c-0.6-0.3-1.3-0.5-2-0.5h-2.4v8.5H1756.2z
		 M1751.8,331.1h-1.1v3.7h-4.3v-3.6h-1.1v8.5h1.1v-3.9h4.3v3.9h1.1L1751.8,331.1z M1744,335.6h-2.9v0.9h2.8L1744,335.6z
		 M1732.2,331.1h-1.1l2.1,8.5h1l1.8-6.2l0.1-0.7l0.1,0.7l1.8,6.2h1l2.1-8.5h-1.1l-1.3,5.8l-0.2,1.2l-0.2-1l-1.7-6h-0.9l-1.7,6
		l-0.2,1l-0.2-1.1L1732.2,331.1z M1728.7,336.5c0.3,0.2,0.5,0.6,0.4,1c0,0.4-0.2,0.8-0.5,1c-0.4,0.3-0.9,0.4-1.4,0.4
		c-0.5,0-1.1-0.1-1.5-0.5c-0.4-0.3-0.6-0.7-0.6-1.2h-1.1c0,0.5,0.1,0.9,0.4,1.3c0.3,0.4,0.7,0.7,1.2,0.9c0.5,0.2,1.1,0.3,1.6,0.3
		c0.8,0,1.5-0.2,2.2-0.6c0.5-0.4,0.8-1,0.8-1.7c0-0.4-0.1-0.8-0.3-1.1c-0.2-0.3-0.5-0.6-0.9-0.8c-0.5-0.3-1.1-0.5-1.7-0.7
		c-0.5-0.1-1.1-0.3-1.5-0.7c-0.3-0.2-0.4-0.5-0.4-0.9c0-0.4,0.2-0.8,0.5-1c0.4-0.3,0.8-0.4,1.3-0.4c0.5,0,1,0.1,1.4,0.4
		c0.3,0.3,0.5,0.8,0.5,1.2h1.1c0-0.5-0.1-0.9-0.4-1.3c-0.3-0.4-0.6-0.7-1.1-0.9c-0.5-0.2-1-0.3-1.6-0.3c-0.8,0-1.5,0.2-2.1,0.7
		c-0.5,0.4-0.8,1-0.8,1.7c0,0.6,0.2,1.1,0.7,1.5c0.6,0.5,1.3,0.8,2.1,1C1727.6,336,1728.2,336.2,1728.7,336.5L1728.7,336.5z
		 M1718.9,335.6l0.3-0.2c0.3-0.2,0.7-0.3,1.1-0.3c0.5,0,0.9,0.2,1.2,0.5c0.3,0.4,0.5,0.9,0.5,1.4c0,0.5-0.1,1-0.4,1.4
		c-0.3,0.3-0.7,0.5-1.2,0.5c-0.4,0-0.8-0.1-1.1-0.4c-0.3-0.3-0.5-0.7-0.5-1.1h-1c0,0.7,0.3,1.3,0.8,1.7c0.5,0.4,1.2,0.7,1.8,0.6
		c0.7,0,1.5-0.2,2-0.8c0.5-0.6,0.8-1.3,0.7-2.1c0-0.8-0.2-1.5-0.7-2.1c-0.5-0.5-1.1-0.8-1.8-0.8c-0.5,0-1,0.1-1.4,0.4l0.3-2.3h3.4
		v-1h-4.4l-0.4,4.3L1718.9,335.6z M1716.4,338.7h-4.3l2.3-2.5c0.9-0.8,1.5-1.8,1.6-3c0-0.6-0.2-1.2-0.7-1.7
		c-0.5-0.4-1.2-0.7-1.9-0.6c-0.7,0-1.5,0.2-2,0.7c-0.5,0.5-0.8,1.2-0.8,1.9h1.1c0-0.5,0.1-0.9,0.4-1.3c0.3-0.3,0.8-0.5,1.3-0.5
		c0.4,0,0.8,0.1,1.1,0.4c0.3,0.3,0.4,0.7,0.4,1.1c0,0.3-0.1,0.7-0.3,1c-0.3,0.4-0.6,0.8-0.9,1.2l-3,3.3v0.8h5.6L1716.4,338.7z
		 M1708.3,336.3c0,0.7-0.1,1.4-0.4,2c-0.3,0.4-0.7,0.6-1.2,0.6c-0.5,0-1-0.2-1.2-0.7c-0.3-0.6-0.4-1.3-0.4-2v-1.7
		c0-0.7,0.1-1.3,0.4-1.9c0.3-0.4,0.7-0.7,1.2-0.6c0.5,0,1,0.2,1.2,0.6c0.3,0.6,0.4,1.3,0.4,2L1708.3,336.3z M1709.4,334.6
		c0.1-1-0.2-1.9-0.7-2.7c-1-1.1-2.8-1.2-3.9-0.2c-0.1,0.1-0.1,0.1-0.2,0.2c-0.5,0.8-0.7,1.8-0.7,2.8v1.5c-0.1,0.9,0.2,1.9,0.7,2.7
		c1,1.1,2.7,1.2,3.8,0.2c0.1-0.1,0.2-0.2,0.2-0.2c0.5-0.9,0.7-1.8,0.7-2.8L1709.4,334.6z M1698.9,335.7h0.8c0.5,0,0.9,0.1,1.3,0.4
		c0.3,0.3,0.5,0.7,0.5,1.1c0,0.4-0.1,0.9-0.4,1.2c-0.3,0.3-0.8,0.4-1.2,0.4c-0.4,0-0.9-0.1-1.2-0.4c-0.3-0.3-0.5-0.7-0.4-1.1h-1.1
		c0,0.7,0.3,1.3,0.8,1.7c0.6,0.5,1.3,0.7,2,0.7c0.7,0,1.4-0.2,2-0.7c0.5-0.5,0.8-1.1,0.8-1.8c0-0.5-0.1-0.9-0.4-1.3
		c-0.3-0.4-0.7-0.6-1.1-0.7c0.4-0.2,0.8-0.4,1-0.8c0.2-0.3,0.4-0.7,0.4-1.1c0-0.7-0.2-1.3-0.7-1.8c-0.5-0.4-1.2-0.7-1.9-0.6
		c-0.7,0-1.4,0.2-1.9,0.7c-0.5,0.4-0.8,1-0.7,1.7h1.1c0-0.4,0.1-0.8,0.4-1.1c0.3-0.3,0.7-0.4,1.1-0.4c0.7-0.1,1.4,0.4,1.5,1.1
		c0,0.1,0,0.3,0,0.4c0,0.4-0.1,0.8-0.4,1.1c-0.3,0.3-0.8,0.4-1.2,0.4h-0.8L1698.9,335.7z"/>
	<path class="st2" d="M1731.8,347.5h1.6c0.4,0,0.9,0.1,1.2,0.4c0.3,0.3,0.5,0.6,0.4,1c0,0.4-0.1,0.7-0.4,1c-0.3,0.3-0.7,0.4-1.1,0.4
		h-1.8L1731.8,347.5z M1735.3,353h0.2v0l-1.5-2.4c0.4-0.1,0.7-0.3,0.9-0.5c0.2-0.3,0.4-0.6,0.4-1c0-0.5-0.2-0.9-0.5-1.2
		c-0.4-0.3-0.9-0.5-1.4-0.4h-1.8v5.7h0.2v-2.5h2L1735.3,353z M1730.1,350h-2.8v-2.5h3.3v-0.2h-3.5v5.7h3.5v-0.2h-3.3v-2.6h2.8V350z
		 M1725.5,347.3h-0.2v2.7h-3.6v-2.7h-0.2v5.7h0.2v-2.8h3.6v2.8h0.2V347.3z M1719.9,351.3c0,0.5-0.2,0.9-0.5,1.2
		c-0.4,0.3-0.8,0.4-1.3,0.4c-0.4,0-0.7-0.1-1-0.3c-0.3-0.2-0.5-0.5-0.7-0.8c-0.2-0.4-0.2-0.8-0.2-1.2v-0.8c0-0.6,0.1-1.2,0.5-1.7
		c0.3-0.4,0.8-0.6,1.3-0.6c0.5,0,0.9,0.1,1.3,0.4c0.3,0.3,0.5,0.7,0.6,1.2h0.2c0-0.5-0.2-1-0.6-1.3c-0.4-0.3-0.9-0.5-1.4-0.5
		c-0.4,0-0.8,0.1-1.1,0.3c-0.3,0.2-0.6,0.5-0.7,0.9c-0.2,0.4-0.3,0.9-0.3,1.3v0.9c0,0.4,0.1,0.9,0.3,1.3c0.2,0.4,0.4,0.7,0.7,0.9
		c0.3,0.2,0.7,0.3,1.1,0.3c0.5,0,1-0.1,1.4-0.5c0.4-0.4,0.6-0.8,0.6-1.3L1719.9,351.3z M1715.2,347.3h-4.3v0.2h2.1v5.5h0.2v-5.5h2.1
		L1715.2,347.3z M1709.7,347.3h-0.2v5.7h0.2V347.3z M1703,351.7l-1.2-4.4h-0.2l1.5,5.7h0.2l1.4-4.7l0.2-0.6l0.2,0.6l1.4,4.7h0.2
		l1.5-5.7h-0.2l-1.2,4.4l-0.3,0.9l-0.3-0.9l-1.3-4.4h-0.2l-1.3,4.4l-0.3,0.9L1703,351.7z M1700.3,352.5c-0.4,0.2-0.8,0.4-1.2,0.3
		c-0.5,0-1-0.1-1.4-0.4c-0.3-0.3-0.5-0.7-0.5-1.1h-0.2c0,0.7,0.4,1.3,1,1.5c0.4,0.1,0.7,0.2,1.1,0.2c0.3,0,0.7-0.1,1-0.2
		c0.3-0.1,0.5-0.3,0.7-0.5c0.2-0.2,0.2-0.5,0.2-0.8c0-0.4-0.2-0.8-0.6-1.1c-0.4-0.3-0.9-0.5-1.4-0.6c-0.5-0.1-0.9-0.3-1.3-0.5
		c-0.4-0.3-0.5-0.9-0.2-1.4c0.1-0.1,0.2-0.2,0.3-0.3c0.4-0.2,0.8-0.4,1.2-0.3c0.4,0,0.9,0.1,1.2,0.4c0.3,0.3,0.5,0.6,0.5,1h0.2
		c0-0.3-0.1-0.6-0.2-0.9c-0.2-0.3-0.4-0.5-0.7-0.6c-0.3-0.1-0.7-0.2-1-0.2c-0.5,0-1,0.1-1.4,0.4c-0.3,0.2-0.5,0.6-0.5,1
		c0,0.2,0.1,0.5,0.2,0.7c0.1,0.2,0.3,0.4,0.5,0.5c0.4,0.2,0.7,0.3,1.1,0.4c0.4,0.1,0.7,0.2,1.1,0.4c0.2,0.1,0.4,0.3,0.5,0.5
		c0.1,0.2,0.2,0.4,0.2,0.6C1700.8,352,1700.6,352.3,1700.3,352.5L1700.3,352.5z"/>
</g>
</svg>
